<?xml version="1.0" encoding="utf-8" ?><svg xmlns="http://www.w3.org/2000/svg" xmlns:xlink="http://www.w3.org/1999/xlink" width="1024" height="1024" viewBox="0 0 1024 1024"><path fill="#86AA75" d="M472.033 520.422C456.285 542.049 454.308 572.349 424.328 577.611C417.919 578.736 410.572 578.065 404.531 575.562C403.279 576.406 402.815 576.899 401.308 576.963L400.789 576.164C401.278 574.266 401.44 574.148 402.607 572.512C396.41 546.66 410.608 530.859 435.566 525.155C447.338 522.465 459.933 520.607 472.033 520.422Z"/><path fill="#31793C" d="M410.686 563.969C423.03 551.006 442.113 536.569 458.646 529.531C440.824 543.503 428.699 549.647 411.904 566.944C411.922 564.848 412.192 565.846 410.686 563.969Z"/><path fill="#589156" d="M402.607 572.512C404.763 571.337 408.592 566.211 410.686 563.969C412.192 565.846 411.922 564.848 411.904 566.944C410.577 568.515 404.824 574.607 404.531 575.562C403.279 576.406 402.815 576.899 401.308 576.963L400.789 576.164C401.278 574.266 401.44 574.148 402.607 572.512Z"/><path fill="#86AA75" d="M457.519 148.804C468.433 132.034 477.22 137.799 492.265 142.135C481.014 153.051 473.024 161.957 457.476 150.395L457.519 148.804Z"/><path fill="#31793C" d="M457.519 148.804C467.141 145.693 473.708 142.348 483.97 142.423C473.357 145.231 467.854 146.583 457.476 150.395L457.519 148.804Z"/><path fill="#589156" d="M543.089 45.5927C543.604 39.9184 545.103 36.6402 549.487 32.7969C552.487 30.1673 555.838 28.5798 559.284 31.3408C559.999 34.4154 558.814 39.7504 557.166 42.4007C554.104 47.3258 549.324 47.2695 544.437 48.2977C543.014 47.04 543.592 47.8183 543.089 45.5927Z"/><path fill="#31793C" d="M543.089 45.5927C546.726 43.1038 553.095 35.5836 555.324 34.4552C554.544 36.0559 545.656 47.1851 544.437 48.2977C543.014 47.04 543.592 47.8183 543.089 45.5927Z"/><path fill="#86AA75" d="M520.06 25.7809C529.576 26.1265 535.889 22.6619 537.751 35.3651C530.91 37.1036 519.456 33.7444 520.06 25.7809Z"/><path fill="#589156" d="M522.993 28.6916C525.79 28.8552 532.804 29.5082 534.256 31.8266C531.929 31.3773 524.497 30.1737 522.993 28.6916Z"/><path fill="#86AA75" fill-opacity="0.98431373" d="M423.485 131.404L424.582 131.435L424.9 131.82C419.566 133.943 413.941 136.107 413.463 142.805C412.853 151.36 426.514 153.341 423.779 143.589C422.103 142.582 421.811 143.054 419.352 143.274L419.207 142.425C433.023 139.184 420.436 160.978 413.645 147.619C412.412 145.211 412.233 142.399 413.151 139.855C414.957 134.912 419.125 133.265 423.485 131.404Z"/><path fill="#361C37" d="M595.392 890.715C600.234 886.62 605.792 883.402 612.334 883.487C615.283 883.557 617.188 883.628 620.135 883.996C621.725 884.905 623.904 886.269 625.58 886.842C628.832 885.333 630.975 885.109 634.422 884.916C639.594 885.422 642.992 886.302 647.502 889.131C645.509 891.065 643.07 893.321 641.202 895.309C639.901 896.884 637.953 899.092 636.811 900.694C633.302 907.328 629.486 914.521 628.939 922.175C626.105 923.783 623.634 925.207 620.672 926.576C623.095 928.085 625.418 929.513 627.753 931.159C627.35 939.87 630.255 947.627 633.09 955.745C626.12 963.438 636.595 970.269 617.222 976.36C621.915 992.753 617.012 1001.45 601.222 1007.17C604.209 1012 605.164 1018.48 604.181 1024L582.971 1024L561.029 1024C560.696 1014.22 560.336 1012.5 566.025 1004.5C557.778 1004.63 552.74 1001.3 547.906 994.993C544.428 990.205 543.165 985.159 544.789 979.436C546.033 975.053 549.054 972.163 550.728 968.163L548.73 967.473C541.323 967.199 535.336 963.696 531.069 957.663C524.332 948.654 527.179 938.741 534.151 930.98C529.285 928.615 526.346 926.416 523.236 921.94C521.076 918.792 520.04 915.008 520.295 911.199L521.154 902.928C525.263 892.827 535.676 887.326 546.349 888.179C550.498 888.711 553.107 889.654 556.945 891.407C561.497 891.624 564.414 891.764 568.836 890.652L569.467 890.323C575.545 887.238 578.492 886.164 585.433 886C587.027 886.578 586.978 886.569 588.669 886.669L589.063 886.957C591.262 888.438 593.31 889.362 595.392 890.715Z"/><path fill="#4B2F56" d="M521.154 902.928C525.263 892.827 535.676 887.326 546.349 888.179L545.085 889.007C544.95 891.357 548.627 895.564 549.302 897.969C551.401 905.442 549.001 913.126 543.318 918.112C535.698 924.796 529.302 920.59 523.236 921.94C521.076 918.792 520.04 915.008 520.295 911.199L521.154 902.928Z"/><path fill="#634C7D" d="M532.219 895.426C543.679 896.176 537.515 908.27 531.117 912.403C519.167 909.676 524.683 900.08 532.219 895.426Z"/><path fill="#4B2F56" d="M595.392 890.715C600.234 886.62 605.792 883.402 612.334 883.487C620.817 890.208 623.403 900.115 616.193 908.977C613.354 912.477 609.221 914.682 604.733 915.092C595.581 915.936 591.469 910.048 591.015 901.691C590.737 896.588 594.659 894.013 595.392 890.715Z"/><path fill="#634C7D" d="M602.317 890.945C613.323 891.736 607.545 901.172 601.1 904.999C597.95 905.155 594.248 903.04 595.223 899.348C596.373 894.993 598.699 893.237 602.317 890.945Z"/><path fill="#4B2F56" d="M534.151 930.98C539.293 929.439 544.454 927.212 549.571 929.919C556.46 933.563 555.721 943.127 552.202 948.864C549.893 952.656 546.143 955.349 541.811 956.326C536.166 957.63 534.468 955.497 531.069 957.663C524.332 948.654 527.179 938.741 534.151 930.98Z"/><path fill="#634C7D" d="M537.301 933.423C548.579 933.647 543.102 942.362 538.457 947.171C535.472 947.666 531.906 947.014 531.956 943.103C532.013 938.68 534.247 936.257 537.301 933.423Z"/><path fill="#4B2F56" d="M548.73 967.473C553.845 967.358 557.397 965.887 562.046 965.816C576.491 973.717 571.813 989.49 557.656 994.397C554.513 995.486 551.146 993.609 547.906 994.993C544.428 990.205 543.165 985.159 544.789 979.436C546.033 975.053 549.054 972.163 550.728 968.163L548.73 967.473Z"/><path fill="#634C7D" d="M552.359 971.901C562.858 972.302 561.703 978.956 555.465 984.761C545.569 986.291 547.115 977.189 552.359 971.901Z"/><path fill="#4B2F56" d="M566.025 1004.5C570.37 1002.72 577.74 998.752 582.242 1001.26C591.383 1006.36 587.626 1017.05 582.971 1024L561.029 1024C560.696 1014.22 560.336 1012.5 566.025 1004.5Z"/><path fill="#634C7D" d="M573.469 1005.85C581.683 1009.3 575.846 1017.54 569.605 1020.08C561.073 1014.14 566.224 1009.07 573.469 1005.85Z"/><path fill="#4B2F56" d="M625.58 886.842C628.832 885.333 630.975 885.109 634.422 884.916C639.594 885.422 642.992 886.302 647.502 889.131C645.509 891.065 643.07 893.321 641.202 895.309C639.901 896.884 637.953 899.092 636.811 900.694C632.69 889.24 629.823 892.244 625.58 886.842Z"/><path fill="#361C37" d="M634.422 884.916C639.594 885.422 642.992 886.302 647.502 889.131C645.509 891.065 643.07 893.321 641.202 895.309C638.966 892.128 636.114 888.336 634.422 884.916Z"/><path fill="#589156" d="M556.945 891.407C561.497 891.624 564.414 891.764 568.836 890.652C567.263 892.248 565.516 894.113 563.891 895.615C561.062 894.187 559.411 893.478 556.945 891.407Z"/><path fill="#4B2F56" d="M604.678 926.089C620.899 926.234 620.784 950.53 600.263 955.997C584.904 956.938 582.35 930.996 604.678 926.089Z"/><path fill="#634C7D" d="M598.693 932.496C607.981 932.874 603.151 942.369 598.341 946.173C588.891 945.881 591.906 936.421 598.693 932.496Z"/><path fill="#4B2F56" d="M570.422 928.097C576.428 927.739 580.923 929.928 582.821 935.985C584.072 939.867 583.685 944.092 581.748 947.682C578.803 953.173 574.426 955.744 568.679 957.416C548.678 957.151 552.735 932.626 570.422 928.097Z"/><path fill="#634C7D" d="M564.912 934.942C575.254 934.937 571.95 942.883 566.897 947.812C557.736 949.283 558.389 939.529 564.912 934.942Z"/><path fill="#4B2F56" d="M588.043 966.565C590.259 966.566 592.345 966.618 594.502 967.217C597.34 968.034 599.719 969.982 601.08 972.604C606.208 982.714 598.543 991.587 589.483 995.502C569.402 996.76 570.198 973.976 588.043 966.565Z"/><path fill="#634C7D" d="M584.521 972.441C595.049 974.648 591.166 982.121 585.157 986.936C575.471 985.059 578.559 977.07 584.521 972.441Z"/><path fill="#634C7D" d="M570.855 894.446C582.043 894.353 578.396 904.991 571.943 909.851C566.319 909.688 563.854 906.498 565.323 900.848C566.306 897.072 567.664 896.41 570.855 894.446Z"/><path fill="#3B619E" d="M229.746 886.731C234.895 888.904 241.241 890.292 246.728 892.114C272.599 900.703 305.782 915.268 310.376 945.654C312.077 956.908 308.623 967.435 302.287 976.851C304.49 980.991 306.529 985.341 307.853 989.849C308.271 992.548 309.294 999.974 310.006 1002.26C310.501 1005.81 310.479 1008.42 310.253 1012.01C309.494 1016 309.453 1019.96 309.472 1024L262.367 1024L190.759 1024C181.879 987.63 200.817 956.066 237.333 947.267C236.476 942.194 236.067 932.956 235.912 927.63C235.443 911.397 234.491 902.284 229.746 886.731Z"/><path fill="#86AA75" d="M229.746 886.731C234.895 888.904 241.241 890.292 246.728 892.114C272.599 900.703 305.782 915.268 310.376 945.654C312.077 956.908 308.623 967.435 302.287 976.851C300.672 974.35 299.614 972.669 298.245 970.006C295.162 968.02 291.547 963.355 289.1 960.396C285.373 957.793 280.371 954.603 276.364 952.582C263.701 945.136 251.325 945.29 237.333 947.267C236.476 942.194 236.067 932.956 235.912 927.63C235.443 911.397 234.491 902.284 229.746 886.731Z"/><path fill="#31793C" d="M235.131 892.168C253.752 906.36 290.809 948.225 298.245 970.006C295.162 968.02 291.547 963.355 289.1 960.396C280.092 943.573 264.164 924.203 251.424 909.868C246.5 904.328 239.488 897.511 235.131 892.168Z"/><path fill="#2A4074" d="M276.364 952.582C280.371 954.603 285.373 957.793 289.1 960.396C291.547 963.355 295.162 968.02 298.245 970.006C299.614 972.669 300.672 974.35 302.287 976.851C304.49 980.991 306.529 985.341 307.853 989.849C308.271 992.548 309.294 999.974 310.006 1002.26C310.501 1005.81 310.479 1008.42 310.253 1012.01C309.494 1016 309.453 1019.96 309.472 1024L262.367 1024C280.762 1000.78 283.984 980.569 276.364 952.582Z"/><path d="M230.396 956.904C234.339 954.305 243.656 951.715 248.572 952.277C250.41 952.929 249.712 952.37 250.754 953.993C251.57 954.608 253.48 956.146 253.932 956.945C255.452 959.63 264.93 965.056 265.661 966.202C265.475 969.062 263.917 983.298 263.314 985.663L262.754 985.928L262.496 987.949L262.568 988.547C259.404 990.057 257.292 990.191 253.907 992.096C252.059 993.136 246.288 996.753 244.759 997.109C236.355 991.305 234.478 991.482 224.447 991.425C224.51 989.056 224.436 986.616 224.401 984.241L223.796 985.831C222.19 984.644 219.177 977.683 219.593 975.707C219.429 975.456 217.788 973.723 217.477 973.386L217.113 972.026C217.531 970.606 225.922 958.424 226.992 957.676C227.627 958.708 227.538 962.162 227.608 963.668C228.178 961.273 227.08 957.797 228.956 956.55L230.396 956.904Z"/><path fill="#6DA0D8" d="M217.477 973.386L217.113 972.026C217.531 970.606 225.922 958.424 226.992 957.676C227.627 958.708 227.538 962.162 227.608 963.668C226.9 968.634 221.847 971.724 217.477 973.386Z"/><path fill="#6DA0D8" d="M230.396 956.904C234.339 954.305 243.656 951.715 248.572 952.277C242.204 957.474 238.641 959.899 230.396 956.904Z"/><path fill="#6DA0D8" d="M264.948 966.367L265.661 966.202C265.475 969.062 263.917 983.298 263.314 985.663L262.754 985.928L260.058 977.872C261.443 973.038 262.664 970.867 264.948 966.367Z"/><path fill="#6DA0D8" d="M250.754 953.993C251.57 954.608 253.48 956.146 253.932 956.945C255.452 959.63 264.93 965.056 265.661 966.202L264.948 966.367C255.706 964.118 253.229 963.192 250.754 953.993Z"/><path fill="#6DA0D8" d="M262.496 987.949L262.568 988.547C259.404 990.057 257.292 990.191 253.907 992.096C252.059 993.136 246.288 996.753 244.759 997.109C249.286 989.816 254.344 988.272 262.496 987.949Z"/><path fill="#4F7FBB" d="M219.593 975.707C222.297 978.824 223.091 980.305 224.401 984.241L223.796 985.831C222.19 984.644 219.177 977.683 219.593 975.707Z"/><path fill="#2A4074" d="M247.152 956.926C249.139 957.192 250.219 961.708 251.52 962.806C253.63 964.586 257.835 966.858 260.255 968.246C258.33 975.885 257.928 978.04 259.566 985.777C251.347 986.952 249.521 987.411 244.219 993.403L239.308 990.841C233.821 989.271 231.761 989.453 226.115 989.497C226.199 981.961 226.226 980.858 222.26 974.5C228.571 968.983 229.186 968.526 230.959 960.407C239.189 961.152 240.514 961.335 247.152 956.926Z"/><path fill="#6DA0D8" d="M198.705 993.773C202.53 993.764 205.676 996.784 205.822 1000.61C205.969 1004.43 203.063 1007.68 199.249 1007.96C196.656 1008.16 194.166 1006.92 192.755 1004.74C191.344 1002.55 191.237 999.774 192.477 997.489C193.717 995.205 196.105 993.779 198.705 993.773Z"/><path fill="#6DA0D8" d="M204.132 971.443C207.318 971.522 209.55 971.365 210.36 974.893C209.953 977.186 209.192 977.828 207.734 979.762C204.691 979.081 202.827 978.319 201.935 975.341C202.226 973.431 202.891 972.926 204.132 971.443Z"/><path fill="#FB9E37" d="M729.822 708.388C732.353 708.028 735.33 707.525 737.84 707.32C737.225 709.812 736.642 712.451 735.822 714.871C737.509 715.101 739.304 715.312 740.964 715.632C758.746 720.636 772.533 728.769 781.882 745.305C789.043 758.039 790.81 773.109 786.787 787.153C778.072 817.971 747.998 832.099 717.72 826.393C711.96 829.482 710.887 829.646 707.549 824.006C704.008 819.713 700.561 817.487 696.088 814.164C694.065 812.325 692.025 810.504 689.97 808.701L687.134 805.04C685.2 802.806 683.45 800.419 681.901 797.903C667.164 773.763 675.395 739.086 699.772 724.444C702.242 722.977 704.381 721.388 706.709 719.718C714.137 715.751 720.332 716.169 728.383 714.903C728.627 712.062 728.989 711.076 729.822 708.388Z"/><path fill="#F6792C" d="M740.964 715.632C758.746 720.636 772.533 728.769 781.882 745.305C789.043 758.039 790.81 773.109 786.787 787.153C778.072 817.971 747.998 832.099 717.72 826.393C711.96 829.482 710.887 829.646 707.549 824.006C704.008 819.713 700.561 817.487 696.088 814.164C694.065 812.325 692.025 810.504 689.97 808.701L687.134 805.04C690.088 803.942 698.866 806.584 702.265 807.052C720.356 809.546 742.085 803.166 753.274 788.05C754.301 786.663 761.372 776.762 761.961 776.318C762.66 777.013 762.491 776.948 763.324 777.423C764.007 775.58 763.624 766.732 763.839 764.145C765.145 749.059 759.06 734.216 747.939 724.027C745.409 721.71 742.016 718.869 740.964 715.632Z"/><path fill="#A45226" d="M707.549 824.006C708.612 821.873 709.588 819.207 711.977 818.601C718.504 816.946 718.894 821.978 717.72 826.393C711.96 829.482 710.887 829.646 707.549 824.006Z"/><path fill="#A45226" d="M729.822 708.388C732.353 708.028 735.33 707.525 737.84 707.32C737.225 709.812 736.642 712.451 735.822 714.871L735.767 716.056C734.852 719.043 733.707 722.723 729.8 722.558C727.333 720.889 727.937 719.924 728.204 717.042L728.383 714.903C728.627 712.062 728.989 711.076 729.822 708.388Z"/><path fill="#F6792C" d="M728.204 717.042C727.937 719.924 727.333 720.889 729.8 722.558C733.707 722.723 734.852 719.043 735.767 716.056C736.615 717.744 738.365 720.72 737.332 722.22C732.53 729.189 724.563 724.821 720.999 720.118C722.476 719.474 726.884 717.449 728.204 717.042Z"/><path fill="#FDCD81" d="M705.73 730.102C711.979 729.816 711.817 730.565 713.885 735.894C710.352 747.693 706.43 754.467 694.968 759.937C687.601 760.406 685.312 757.264 687.189 750.077C689.774 740.18 696.066 733.375 705.73 730.102Z"/><path fill="#FDCD81" d="M687.565 763.247C689.099 762.834 690.736 763.279 691.85 764.412C692.963 765.544 693.381 767.188 692.943 768.715C692.504 770.241 691.278 771.414 689.733 771.783C687.391 772.342 685.034 770.917 684.442 768.584C683.849 766.25 685.24 763.873 687.565 763.247Z"/><path fill="#FB9E37" d="M659.587 881.26C662.091 881.672 668.725 883.276 670.545 883.344C675.346 883.523 680.948 882.867 685.965 882.914C691.536 882.965 695.157 884.105 700.26 884.711C705.334 884.729 707.956 884.524 712.841 883.43C727.025 892.586 736.053 902.767 739.784 919.816C743.018 933.959 740.371 948.808 732.451 960.963C723.988 973.774 710.794 982.711 695.758 985.818C681.459 988.889 666.525 986.103 654.294 978.084C649.886 975.169 647.849 973.139 644.162 969.511C640.455 965.462 635.815 958.466 633.09 955.745C630.255 947.627 627.35 939.87 627.753 931.159C628.715 927.704 628.739 925.702 628.939 922.175C629.486 914.521 633.302 907.328 636.811 900.694C637.953 899.092 639.901 896.884 641.202 895.309C643.07 893.321 645.509 891.065 647.502 889.131C652.057 885.042 654.106 884.101 659.587 881.26Z"/><path fill="#F6792C" d="M712.841 883.43C727.025 892.586 736.053 902.767 739.784 919.816C743.018 933.959 740.371 948.808 732.451 960.963C723.988 973.774 710.794 982.711 695.758 985.818C681.459 988.889 666.525 986.103 654.294 978.084C649.886 975.169 647.849 973.139 644.162 969.511C648.266 969.209 655.401 970.056 659.506 970.343C712.111 974.024 738.154 923.961 700.474 885.24C700.403 885.063 700.332 884.887 700.26 884.711C705.334 884.729 707.956 884.524 712.841 883.43Z"/><path fill="#FDCD81" d="M659.362 891.067C667.71 890.698 671.283 895.385 668.319 903.327C665.089 911.979 658.74 920.38 650.436 924.66C636.272 927.008 639.284 913.031 643.473 905.03C647.398 897.532 651.27 893.723 659.362 891.067Z"/><path fill="#FDCD81" d="M640.541 929.442C648.591 930.861 648.373 935.666 642.366 939.871C636.41 938.295 633.588 933.032 640.541 929.442Z"/><path fill="#361C37" d="M365.93 577.477C369.867 575.991 372.829 575.93 376.881 576.182C386.343 577.724 395.43 581.694 398.089 591.805C401.947 591.65 403.11 591.719 407.037 592.599C408.048 593.307 411.24 594.902 411.612 595.204C414.683 597.956 416.315 599.248 418.378 602.908C420.222 603.476 420.427 603.498 422.36 603.693C429.018 604.408 435.327 607.032 439.537 612.471C442.456 616.183 443.77 620.908 443.187 625.595C442.048 634.468 435.547 639.973 427.439 642.578C430.926 656.406 427.285 661.7 414.759 667.569C419.548 680.459 417.509 687.525 404.211 693.21C405.7 699.034 406.507 703.623 403.236 709.25C400.939 713.274 397.068 716.157 392.555 717.205C385.742 718.717 379.779 715.41 375.509 710.282C374.537 708.897 373.766 707.38 373.221 705.777C370.979 699.224 374.98 693.488 374.509 691.815C368.896 690.659 366.813 689.122 362.973 685.256C360.373 681.39 358.231 677.086 359.73 672.153C360.417 669.892 361.411 668.907 361.859 666.317L360.951 665.68C355.068 665.189 351.121 663.301 347.401 658.721C343.185 653.169 343.901 648.838 344.858 642.393C342.014 638.653 339.198 635.184 338.226 630.546C338.511 629.615 338.496 627.63 338.766 626.467C341.505 614.659 349.246 608.747 361.497 610.322L364.697 604.51C368.147 594.567 369.114 587.571 365.93 577.477Z"/><path fill="#4B2F56" d="M418.378 602.908C420.222 603.476 420.427 603.498 422.36 603.693C422.07 607.865 428.089 613.97 425.307 621.312C418.603 639.609 391.584 636.054 400.705 614.008C405.456 602.526 409.949 606.982 418.378 602.908Z"/><path fill="#634C7D" d="M409.155 610.316C418.728 612.469 414.239 619.853 408.804 623.757C399.074 622.276 404.303 614.155 409.155 610.316Z"/><path fill="#4B2F56" d="M360.951 665.68C364.414 663.274 367.963 661.291 372.366 661.983C374.927 662.378 377.196 663.851 378.598 666.03C382.19 671.593 379.401 678.679 374.142 682.109C370.788 684.296 365.742 683.011 362.973 685.256C360.373 681.39 358.231 677.086 359.73 672.153C360.417 669.892 361.411 668.907 361.859 666.317L360.951 665.68Z"/><path fill="#634C7D" d="M366.324 666.414C368.927 666.648 370.476 666.852 371.733 669.354C371.918 672.646 370.951 673.396 368.698 675.958C360.745 676.554 362.182 670.523 366.324 666.414Z"/><path fill="#4B2F56" d="M374.509 691.815C379.49 689.932 382.76 685.42 388.396 688.066C397.02 692.115 394.256 705.057 386.03 707.827C382.517 709.01 378.045 708.288 375.509 710.282C374.537 708.897 373.766 707.38 373.221 705.777C370.979 699.224 374.98 693.488 374.509 691.815Z"/><path fill="#634C7D" d="M379.089 691.921C381.957 691.925 383.435 691.992 384.664 694.781C384.455 697.966 383.416 698.798 381.202 701.206C379.906 701.638 379.446 701.465 378.028 701.418C374.238 699.05 377.112 694.514 379.089 691.921Z"/><path fill="#4B2F56" d="M365.93 577.477C369.867 575.991 372.829 575.93 376.881 576.182L375.27 576.658L374.985 577.481C378.03 583.303 381.129 585.971 379.246 592.329C377.973 596.61 374.991 600.175 371.003 602.185C369.281 603.069 366.576 603.922 364.697 604.51C368.147 594.567 369.114 587.571 365.93 577.477Z"/><path fill="#4B2F56" d="M344.858 642.393L347.849 644.667C349.911 645.541 352.523 646.744 354.571 647.5C357.967 647.108 360.908 646.055 361.912 650.126C361.061 653.93 359.021 655.596 355.757 657.512C352.865 657.478 349.368 656.9 347.401 658.721C343.185 653.169 343.901 648.838 344.858 642.393Z"/><path fill="#634C7D" d="M354.571 647.5C352.438 649.01 349.022 651.543 347.278 648.489C347.355 646.674 347.286 646.439 347.849 644.667C349.911 645.541 352.523 646.744 354.571 647.5Z"/><path fill="#4B2F56" d="M391.522 591.648C393.369 591.519 395.674 591.844 397.555 592.034C405.221 604.45 399.678 618.856 384.468 620.281C378.587 618.618 376.381 616.834 374.221 611.123C376.77 599.75 378.954 593.71 391.522 591.648Z"/><path fill="#634C7D" d="M384.478 597.403C393.779 598.849 388.761 607.395 383.73 610.909C373.879 608.378 378.669 601.388 384.478 597.403Z"/><path fill="#4B2F56" d="M402.123 634.97C417.962 635.02 418.672 650.38 405.715 657.807C399.521 659.633 397.429 658.594 393.07 654.313C392.359 644.048 392.94 640.066 402.123 634.97Z"/><path fill="#634C7D" d="M399.825 639.823C408.142 640.856 405.402 646.658 401.261 650.763C393.188 651.108 395.986 643.692 399.825 639.823Z"/><path fill="#4B2F56" d="M376.171 634.988C392.323 635.353 390.932 652.611 377.85 658.051C360.411 658.479 362.659 642.07 376.171 634.988Z"/><path fill="#634C7D" d="M373.728 638.722C382.25 640.15 377.037 647.369 373.441 650.767C365.877 648.6 369.651 642.189 373.728 638.722Z"/><path fill="#4B2F56" d="M392.734 662.075C408.28 662.214 408.308 679.008 394.377 684.403C378.672 685.181 378.875 667.2 392.734 662.075Z"/><path fill="#634C7D" d="M389.628 666.888C392.317 667.085 393.772 667.105 395.13 669.728C395.43 673.011 394.45 673.934 392.356 676.584C384.334 676.482 385.847 671.444 389.628 666.888Z"/><path fill="#E92F3B" d="M333.179 533.626C335.711 535.047 337.706 536.074 340.004 537.884C335.083 544.418 334.05 545.991 331.178 553.577C346.674 546.943 349.458 552.041 364.795 551.017C360.639 554.664 358.085 556.907 353.379 559.751C357.423 563.273 367.208 570.863 365.745 576.647L365.93 577.477C369.114 587.571 368.147 594.567 364.697 604.51L361.497 610.322C349.246 608.747 341.505 614.659 338.766 626.467C338.496 627.63 338.511 629.615 338.226 630.546C331.174 637.306 317.933 645.7 307.735 642.638C299.03 640.025 294.803 632.539 290.802 625.092C281.617 606.087 273.36 574.909 292.948 559.213C297.745 555.367 301.578 553.794 307.499 552.312C301.351 547.902 300.166 546.744 296.965 539.939C313.239 544.859 312.323 542.487 326.104 552.572C328.327 545.067 329.774 540.82 333.179 533.626Z"/><path fill="#D8232A" d="M344.374 570.263C353.635 571.541 357.543 571.656 365.745 576.647L365.93 577.477C369.114 587.571 368.147 594.567 364.697 604.51L361.497 610.322C349.246 608.747 341.505 614.659 338.766 626.467C338.496 627.63 338.511 629.615 338.226 630.546C331.174 637.306 317.933 645.7 307.735 642.638C299.03 640.025 294.803 632.539 290.802 625.092C295.581 622.093 301.326 624.033 307.528 621.678C313.215 619.519 316.832 614.369 321.074 612.407C321.524 613.991 321.471 614.652 321.592 616.291L322.197 616.614C323.538 615.577 323.548 615.698 324.165 614.148L323.695 612.153C323.509 611.378 323.094 609.695 323.405 609.096C325.702 604.673 331.108 589.808 334.323 587.438C335.26 587.411 335.811 587.388 336.738 587.264C339.995 582.939 343.394 575.7 344.374 570.263Z"/><path fill="#FEDDE1" d="M353.163 583.833C355.123 585.521 354.036 589.519 353.696 591.819L352.816 591.017C351.774 588.111 352.282 586.851 353.163 583.833Z"/><path fill="#31793C" d="M333.179 533.626C335.711 535.047 337.706 536.074 340.004 537.884C335.083 544.418 334.05 545.991 331.178 553.577C346.674 546.943 349.458 552.041 364.795 551.017C360.639 554.664 358.085 556.907 353.379 559.751C357.423 563.273 367.208 570.863 365.745 576.647C357.543 571.656 353.635 571.541 344.374 570.263C342.459 569.774 339.76 568.706 337.83 568.014C331.481 594.797 320.282 581.989 318.718 563.549C308.345 567.075 301.015 567.978 290.776 563.402L295.158 560.427C297.362 559.153 306.827 554.075 307.499 552.312C301.351 547.902 300.166 546.744 296.965 539.939C313.239 544.859 312.323 542.487 326.104 552.572C328.327 545.067 329.774 540.82 333.179 533.626Z"/><path fill="#FEDDE1" d="M302.225 608.824C304.774 611.043 303.098 613.78 301.968 616.298C299.192 613.847 300.877 611.664 302.225 608.824Z"/><path fill="#FEDDE1" d="M323.221 586.794C324.084 587.404 323.916 587.367 324.586 588.254C325.038 590.375 324.39 591.449 323.647 593.604C322.058 592.95 322.626 593.479 321.834 592.025C321.728 589.908 322.399 588.825 323.221 586.794Z"/><path fill="#FEDDE1" d="M301.276 585.364C303.69 587.763 302.261 590.018 301.082 592.694C298.326 591.555 300.473 587.394 301.276 585.364Z"/><path fill="#FEFEFE" d="M294.618 574.298C296.762 576.668 294.796 579.073 293.378 581.178C291.477 578.297 292.926 576.799 294.618 574.298Z"/><defs><linearGradient id="gradient_0" gradientUnits="userSpaceOnUse" x1="583.39886" y1="414.7417" x2="511.55704" y2="423.40775"><stop offset="0" stop-color="#D11C25"/><stop offset="1" stop-color="#F03A4B"/></linearGradient></defs><path fill="url(#gradient_0)" d="M543.798 373.681C553.852 365.665 552.306 366.618 565.065 361.166C562.545 366.072 561.413 367.375 557.588 371.123L556.988 372.007C557.88 374.822 566.586 378.933 569.553 379.291C570.441 379.909 571.182 380.396 572.014 381.097C580.052 390.076 583.65 396.261 582.97 408.553C582.311 420.453 577.109 454.806 559.296 452.085C535.016 448.377 502.509 427.09 510.81 398.683C512.912 393.193 515.019 388.138 519.452 384.058C505.692 386.469 492.118 387.303 478.311 389.549C446.757 394.681 410.812 408.765 390.889 434.702C388.122 437.123 382.856 442.001 380.035 443.925C380.139 440.934 379.692 438.906 379.209 435.979C380.089 434.634 380.193 434.458 380.271 432.853C382.004 432.069 382.205 432.341 383.002 431C389.768 423.024 403.058 412.556 411.882 406.844C418.613 402.486 427.798 398.841 433.007 393.089L434.304 394.351C446.342 391.546 458.708 384.082 472.604 383.944C476.236 383.908 480.237 382.411 482.354 379.341L482.931 380.092C482.268 381.18 482.401 380.623 482.398 381.725C486.049 382.832 506.592 378.646 511.298 377.466C522.837 374.575 526.398 368.395 539.177 374.483C540.052 375.749 540.585 376.216 541.639 377.32L542.519 377.309C543.321 375.955 543.423 375.184 543.798 373.681Z"/><defs><linearGradient id="gradient_1" gradientUnits="userSpaceOnUse" x1="488.24109" y1="431.76544" x2="458.56177" y2="379.09592"><stop offset="0" stop-color="#27793A"/><stop offset="1" stop-color="#5E9557"/></linearGradient></defs><path fill="url(#gradient_1)" d="M543.798 373.681C553.852 365.665 552.306 366.618 565.065 361.166C562.545 366.072 561.413 367.375 557.588 371.123L556.988 372.007C557.88 374.822 566.586 378.933 569.553 379.291C570.441 379.909 571.182 380.396 572.014 381.097C564.031 385.773 559.601 387.368 550.058 386.454C549.82 390.908 550.246 398.78 544.981 400.332C539.615 399.98 537.437 393.586 535.605 389.266C528.962 394.317 519.71 401.293 510.81 398.683C512.912 393.193 515.019 388.138 519.452 384.058C505.692 386.469 492.118 387.303 478.311 389.549C446.757 394.681 410.812 408.765 390.889 434.702C388.122 437.123 382.856 442.001 380.035 443.925C380.139 440.934 379.692 438.906 379.209 435.979C380.089 434.634 380.193 434.458 380.271 432.853C382.004 432.069 382.205 432.341 383.002 431C389.768 423.024 403.058 412.556 411.882 406.844C418.613 402.486 427.798 398.841 433.007 393.089L434.304 394.351C446.342 391.546 458.708 384.082 472.604 383.944C476.236 383.908 480.237 382.411 482.354 379.341L482.931 380.092C482.268 381.18 482.401 380.623 482.398 381.725C486.049 382.832 506.592 378.646 511.298 377.466C522.837 374.575 526.398 368.395 539.177 374.483C540.052 375.749 540.585 376.216 541.639 377.32L542.519 377.309C543.321 375.955 543.423 375.184 543.798 373.681Z"/><path fill="#FEDDE1" d="M528.239 412.158C531.457 413.349 531.422 416.548 531.537 419.446C530.873 418.672 530.224 417.884 529.593 417.083C528.051 415.107 527.949 414.598 528.239 412.158Z"/><path fill="#D8232A" d="M548.99 410.44C551.411 410.924 553.872 412.516 554.413 415.053C551.408 414.831 549.69 413.296 548.99 410.44Z"/><path fill="#FEDDE1" d="M555.063 395.823C556.862 397.114 556.884 400.348 557.052 402.37C555.651 401.477 555.733 401.487 554.701 400.158C554.226 398.322 554.579 397.649 555.063 395.823Z"/><path fill="#3B619E" d="M638.797 305.201C654.524 302.587 661.733 306.181 672.781 317.005C680.922 327.31 685.335 337.275 683.75 350.787C682.466 361.198 677.084 370.668 668.797 377.099C652.35 389.904 630.73 386.685 615.66 373.42C611.359 368.853 607.285 362.237 605.671 356.164C605.023 353.31 604.718 351.56 604.334 348.685C605.173 343.321 603.678 341.951 605.852 334.572C607.234 330.955 608.702 327.372 610.255 323.825L611.241 323.081L611.603 322.341L612.987 320.657L614.816 318.301C619.552 312.777 626.579 308.397 633.618 306.51C635.952 306.292 636.538 306 638.797 305.201Z"/><path fill="#2A4074" d="M672.781 317.005C680.922 327.31 685.335 337.275 683.75 350.787C682.466 361.198 677.084 370.668 668.797 377.099C652.35 389.904 630.73 386.685 615.66 373.42C617.156 372.994 620.971 372.982 622.844 372.816C632.589 371.949 639.015 370.946 647.547 365.899C642.865 361.207 642.515 353.726 646.739 348.619C650.963 343.511 658.377 342.451 663.864 346.169C664.899 343.986 666.638 341.312 667.828 338.892C671.7 331.022 671.576 325.084 672.781 317.005Z"/><path fill="#6DA0D8" d="M647.547 365.899C642.865 361.207 642.515 353.726 646.739 348.619C650.963 343.511 658.377 342.451 663.864 346.169C665.1 347.007 666.181 348.054 667.058 349.263C671 354.695 670.1 362.246 664.993 366.6C659.886 370.955 652.288 370.65 647.547 365.899Z"/><path fill="#3B619E" d="M648.921 365.195C641.467 352.275 653.455 338.854 665.46 349.186C667.956 353.67 667.573 355.195 667.476 360.302C663.496 366.056 657.133 371.068 650.238 366.179C649.788 365.866 649.349 365.537 648.921 365.195Z"/><path fill="#2A4074" d="M665.46 349.186C667.956 353.67 667.573 355.195 667.476 360.302C663.496 366.056 657.133 371.068 650.238 366.179C649.788 365.866 649.349 365.537 648.921 365.195C650.761 363.37 655.596 361.112 657.31 359.371C660.051 356.585 662.778 352.409 665.46 349.186Z"/><path fill="#6DA0D8" d="M612.987 320.657C616.034 320.418 617.988 320.374 618.615 323.855C617.807 326.69 616.743 328.026 613.612 327.488C611.939 326.161 611.505 325.26 611.241 323.081L611.603 322.341L612.987 320.657Z"/><path d="M637.886 308.385C641.366 310.016 644.219 311.383 647.836 312.656C650.828 311.958 654.051 310.888 657.019 309.975C656.947 312.446 656.974 314.984 656.971 317.461C659.369 321.243 660.895 322.472 664.369 324.995C662.053 327.219 660.711 328.849 658.667 331.314L657.555 340.673C655.549 340.149 652.339 339.721 650.21 339.37C646.42 339.984 644.588 341.433 641.457 343.519C635.789 337.623 635.283 337.231 627.145 335.71C628.689 328.479 630.33 326.022 625.949 319.643C633.534 317.124 635.05 315.785 637.886 308.385Z"/><path fill="#2A4074" d="M639.507 311.89C642.096 313.291 644.835 314.658 647.461 316.011L653.469 314.081C655.103 320.176 655.383 320.234 659.954 324.849C658.484 327.003 657.318 329.052 656.011 331.299C656.238 333.988 656.733 335.675 655.418 337.843C653.641 338.79 649.48 338.083 647.109 337.915C645.605 338.772 643.746 340.049 642.254 341.008C637.567 336.42 635.34 335.398 628.925 334.271C631.09 327.99 631.124 326.974 629.35 320.729C634.619 318.209 636.551 316.861 639.507 311.89Z"/><path fill="#3B619E" d="M305.624 469.627C304.524 468.064 303.353 466.407 302.412 464.748C297.157 455.514 295.844 444.553 298.768 434.339C305.241 411.069 329.88 401.155 352.059 407.687C353.057 408.289 356.158 410.054 356.932 410.642C361.429 413.481 370.288 420.748 373.058 425.226C374.244 425.689 376.587 424.732 378.995 424.675C379.263 426.723 379.712 431.094 380.271 432.853C380.193 434.458 380.089 434.634 379.209 435.979C379.692 438.906 380.139 440.934 380.035 443.925C374.758 452.865 373.771 458.153 369.885 466.991C368.823 468.238 359.97 477.489 359.828 478.012C357.246 478.689 355.021 480.222 352.532 481.125C335.172 487.422 317.832 483.31 305.624 469.627Z"/><path fill="#2A4074" d="M356.932 410.642C361.429 413.481 370.288 420.748 373.058 425.226C374.244 425.689 376.587 424.732 378.995 424.675C379.263 426.723 379.712 431.094 380.271 432.853C380.193 434.458 380.089 434.634 379.209 435.979C379.692 438.906 380.139 440.934 380.035 443.925C374.758 452.865 373.771 458.153 369.885 466.991C368.823 468.238 359.97 477.489 359.828 478.012C357.246 478.689 355.021 480.222 352.532 481.125C335.172 487.422 317.832 483.31 305.624 469.627C308.246 469.148 311.193 469.562 313.85 469.917C322.746 471.102 328.349 471.022 336.744 467.494C346.716 463.343 354.593 455.346 358.594 445.313C363.272 433.383 362.007 422.111 356.932 410.642Z"/><path d="M342.551 413.557C344.742 414.976 344.978 419.484 345.405 421.976C348.002 424.603 349.677 425.305 352.895 426.995C347.965 433.029 348.111 435.343 348.895 442.688C340.83 442.611 339.325 443.479 333.204 448.336C330.526 446.098 329.57 445.455 326.572 443.703C323.698 443.141 320.83 442.804 317.927 442.42L319.533 434.797C317.944 431.582 317.269 430.657 315.112 427.78C322.78 423.199 323.756 422.708 325.138 413.897L332.212 417.393C336.67 416.433 338.629 415.659 342.551 413.557Z"/><path fill="#2A4074" d="M326.183 416.372C326.717 416.697 327.26 417.007 327.812 417.301C332.982 420.018 336.327 418.818 341.472 417.141C343.339 423.097 344.552 424.628 349.004 428.616C346.892 433.536 346.818 434.934 346.773 440.091C344.172 440.671 341.145 441.639 338.549 442.396L333.131 445.129C328.047 441.322 326.472 441.201 320.379 440.33C321.438 432.247 319.164 433.816 318.983 429.071C320.236 426.832 322.796 424.947 324.808 423.206C325.598 420.596 325.798 419.026 326.183 416.372Z"/><path fill="#6DA0D8" d="M307.071 433.809C308.213 433.188 309.602 433.237 310.697 433.937C311.792 434.637 312.42 435.877 312.336 437.174C312.253 438.471 311.47 439.62 310.294 440.174C308.547 440.995 306.464 440.279 305.591 438.557C304.719 436.834 305.375 434.731 307.071 433.809Z"/><path fill="#86AA75" d="M687.844 680.941C681.891 672.152 681.353 664.671 683.391 654.495C690.082 621.085 733.443 609.98 761.748 609.333C758.876 614.93 755.022 622.646 753.588 628.498C747.834 651.987 741.858 676.303 715.651 684.363C708.66 686.513 699.031 687.598 692.027 683.981C691.44 683.673 690.865 683.344 690.303 682.994L688.021 685.401C687.245 684.523 687.417 684.443 687.017 683.185L687.844 680.941Z"/><path fill="#31793C" d="M750.474 617.346L751.038 618.068C734.536 631.129 718.972 647.25 705.423 663.357C700.638 669.047 694.679 678.3 690.303 682.994L688.021 685.401C687.245 684.523 687.417 684.443 687.017 683.185L687.844 680.941C693.059 674.516 697.929 667.428 703.241 660.882C717.711 643.051 732.114 630.806 750.474 617.346Z"/><path fill="#589156" d="M757.219 612.223C754.874 615.294 754.222 615.956 751.038 618.068L750.474 617.346C752.667 615.567 754.917 613.859 757.219 612.223Z"/><path fill="#589156" d="M369.885 466.991C370.037 467.589 370.328 468.323 370.216 468.818C368.322 471.917 367.68 475.708 366.726 479.163C353.3 527.81 374.781 564.338 416.462 589.157C462.733 616.709 513.733 618.647 566.021 624.476C580.569 626.141 598.785 627.17 612.63 630.846C609.166 626.381 606.803 622.349 603.653 618.016C604.687 617.261 604.631 617.406 605.882 616.94C608.863 621.286 613.067 627.844 616.185 631.88C627.139 635.42 637.401 638.976 647.004 645.631C644.034 640.6 641.087 634.196 639.753 628.497C641.102 626.857 640.914 626.183 641.044 623.921C645.293 645.754 654.03 649.587 669.301 663.108C673.407 666.744 683.269 678.542 687.017 683.185C687.417 684.443 687.245 684.523 688.021 685.401C695.814 697.135 701.138 706.703 706.709 719.718C704.381 721.388 702.242 722.977 699.772 724.444C698.299 721.641 693.739 710.193 692.001 708.47C688.988 707.697 689.675 708.126 688.261 705.561L689.558 705.609C690.335 705.561 689.934 705.67 690.725 705.173C690.215 703.18 688.038 699.66 686.866 697.787C678.172 683.895 665.026 668.416 652.122 658.424C638.913 648.196 613.248 634.627 596.057 636.791C595.152 636.031 594.483 635.72 593.463 635.133L593.825 634.79C590.804 633.515 571.938 632.175 567.944 631.816C556.313 630.764 544.69 629.63 533.076 628.412L530.437 630.066L528.955 629.002L529.237 628.311C528.894 628.077 489.979 622.312 485.175 621.524C455.952 616.731 437.517 609.032 411.612 595.204C411.24 594.902 408.048 593.307 407.037 592.599C391.629 581.995 375.582 567.588 366.697 550.981C354.951 528.493 352.485 502.297 359.828 478.012C359.97 477.489 368.823 468.238 369.885 466.991Z"/><path fill="#3B619E" d="M390.889 434.702C406.706 427.39 425.686 435.61 433.209 451.007C437.203 459.501 438.302 468.971 435.049 477.9C431.958 486.327 425.586 493.144 417.385 496.794C408.988 500.551 399.441 500.81 390.852 497.515C384.517 495.096 380.348 491.676 376.102 486.519C371.891 480.441 371.374 475.861 370.216 468.818C370.328 468.323 370.037 467.589 369.885 466.991C373.771 458.153 374.758 452.865 380.035 443.925C382.856 442.001 388.122 437.123 390.889 434.702Z"/><path fill="#2A4074" d="M433.209 451.007C437.203 459.501 438.302 468.971 435.049 477.9C431.958 486.327 425.586 493.144 417.385 496.794C408.988 500.551 399.441 500.81 390.852 497.515C384.517 495.096 380.348 491.676 376.102 486.519C383.95 485.166 398.355 492.295 406.385 484.461C408.098 486.023 408.513 486.364 410.708 486.032C412.131 484.93 412.129 484.378 412.65 482.656C414.69 480.54 418.857 478.498 421.463 475.925C428.828 468.652 429.082 459.455 433.209 451.007Z"/><path fill="#6DA0D8" d="M406.385 484.461C406.968 482.087 407.058 481.473 409.458 480.663C411.227 481.015 411.401 481.38 412.65 482.656C412.129 484.378 412.131 484.93 410.708 486.032C408.513 486.364 408.098 486.023 406.385 484.461Z"/><path d="M393.127 442.403C393.552 441.254 398.666 439.894 399.2 438.977C399.871 437.827 400.287 436.978 401.305 435.639C403.218 435.314 403.576 435.577 405.376 436.218L408.091 439.18C410.965 437.482 416.2 438.805 418.591 441.179L419.053 441.943C421.434 444.533 423.5 450.093 421.896 453.402L422.247 454.424C421.238 455.511 420.785 455.574 419.425 456.179C420.188 458.234 417.596 465.461 415.793 466.797L414.987 466.094C410.272 462.48 405.364 463.464 399.975 464.346C397.303 459.8 395.301 458.249 390.854 455.589C394.569 449.645 393.362 449.242 393.127 442.403Z"/><path fill="#6DA0D8" d="M393.127 442.403C393.552 441.254 398.666 439.894 399.2 438.977C399.871 437.827 400.287 436.978 401.305 435.639C403.218 435.314 403.576 435.577 405.376 436.218C401.681 440.965 399.51 442.797 393.127 442.403Z"/><path fill="#6DA0D8" d="M419.053 441.943C421.434 444.533 423.5 450.093 421.896 453.402L418.366 448.746C418.463 446.268 418.729 444.381 419.053 441.943Z"/><path fill="#6DA0D8" d="M408.091 439.18C410.965 437.482 416.2 438.805 418.591 441.179C413.893 441.843 411.76 442.594 408.091 439.18Z"/><path fill="#6DA0D8" d="M419.425 456.179C420.188 458.234 417.596 465.461 415.793 466.797L414.987 466.094C415.569 461.513 416.12 459.407 419.425 456.179Z"/><path fill="#2A4074" d="M405.852 440.923L409.923 444.029L416.899 443.972C416.952 449.957 418.174 448.903 418.722 453.37C414.527 457.908 416.039 458.354 413.145 462.51C411.77 462.815 410.112 462.142 408.673 461.741C405.341 461.323 403.907 461.65 400.585 462.11C398.079 459.267 397.004 457.922 394.921 454.769C394.936 451.195 395.126 449.577 395.637 446.036C399.298 444.391 402.305 442.821 405.852 440.923Z"/><path fill="#4F7FBB" d="M384.994 449.462C386.902 449.401 388.391 448.999 389.448 450.76C388.328 452.739 388.21 452.386 385.743 453.322L385.08 454.058L383.731 454.123C382.218 453.085 382.659 453.764 382.234 452.107C382.99 450.244 382.885 450.773 384.994 449.462Z"/><path fill="#6DA0D8" d="M377.259 460.093C379.347 460.602 379.682 460.659 380.981 462.255C381.586 464.159 381.405 464.423 380.973 466.464C379.192 465.997 378.406 465.976 377.138 464.644C376.434 462.849 376.84 461.989 377.259 460.093Z"/><path fill="#86AA75" d="M582.646 781.504C616.356 776.633 661.215 770.377 673.48 812.715C674.659 816.784 674.271 820.003 673.612 824.043L674.662 825.033L673.499 827.017L673.069 826.77C666.335 832.995 655.646 836.334 646.568 836.008C622.072 835.129 610.071 815.748 597.011 798.096C592.582 792.109 587.745 786.896 582.646 781.504Z"/><path fill="#31793C" d="M673.069 826.77C672.261 825.99 664.976 821.383 663.501 820.375C643.301 806.565 621.016 795.705 597.486 788.838C599.906 788.352 608.148 790.704 610.756 791.458C626.8 796.096 642.624 802.953 656.816 811.778C662.287 815.181 668.389 820.118 673.612 824.043L674.662 825.033L673.499 827.017L673.069 826.77Z"/><path fill="#86AA75" d="M369.797 334.842C383 351.374 401.319 378.035 398.619 399.846C397.643 407.731 394.228 415.825 387.829 420.817C386.174 422.088 384.424 423.229 382.593 424.229L383.002 431C382.205 432.341 382.004 432.069 380.271 432.853C379.712 431.094 379.263 426.723 378.995 424.675C376.587 424.732 374.244 425.689 373.058 425.226C370.288 420.748 361.429 413.481 356.932 410.642C356.158 410.054 353.057 408.289 352.059 407.687C345.288 392.561 345.652 381.723 351.488 365.963C354.706 357.273 363.478 341.813 369.797 334.842Z"/><path fill="#31793C" d="M369.853 352.418L371.214 352.505L379.465 402.986C380.186 407.63 381.605 420.762 382.593 424.229L383.002 431C382.205 432.341 382.004 432.069 380.271 432.853C379.712 431.094 379.263 426.723 378.995 424.675C378.653 421.137 378.042 417.116 377.432 413.604C373.892 393.232 372.068 372.932 369.853 352.418Z"/><path fill="#589156" d="M369.853 352.418C369.488 349.835 369.344 347.993 369.195 345.416L369.175 346.412L369.873 344.779L369.536 344.501C370.737 346.263 370.978 350.313 371.214 352.505L369.853 352.418Z"/><path fill="#86AA75" d="M518.158 823.658C525.177 823.338 531.073 823.872 538.01 824.711C561.948 827.605 590.967 837.125 591.834 865.727C592.059 873.158 591.232 878.783 587.782 885.513L588.669 886.669C586.978 886.569 587.027 886.578 585.433 886C578.492 886.164 575.545 887.238 569.467 890.323C567.742 887.799 555.442 887.625 551.676 883.811C536.105 868.045 527.486 843.611 518.158 823.658Z"/><path fill="#31793C" d="M527.775 831.306C544.433 840.443 560.703 856.559 573.807 870.065C578.201 874.593 584.178 880.511 587.782 885.513L588.669 886.669C586.978 886.569 587.027 886.578 585.433 886C573.5 874.427 562.367 862.381 550.076 850.912C543.124 844.425 533.928 837.503 527.775 831.306Z"/><path fill="#589156" d="M467.566 186.278C470.769 190.098 479.391 196.409 484.802 195.014L485.178 196.501L484.784 197.329C504.516 207.525 534.371 210.824 556.313 215.052C559.061 215.582 566.697 217.788 568.832 217.069L568.827 216.589C568.871 215.204 569.181 213.645 569.404 212.261C569.35 213.966 569.151 216.195 569.57 217.772C574.576 219.577 581.637 222.795 586.543 225.134C586.246 216.26 585.986 207.612 592.265 200.259C596.274 195.565 607.469 196.936 606.196 204.288C605.604 207.707 603.196 209.628 599.716 209.741C597.922 209.078 596.383 208.048 595.764 206.13L596.273 205.733C598.739 207.886 599.394 209.448 603.161 207.879C607.651 206.008 605.176 201.389 601.821 199.739C599.997 198.837 597.888 198.702 595.964 199.364C587.041 202.504 587.307 218.719 588.388 226.273C595.086 230.531 601.378 234.332 607.213 239.833C610.232 242.678 613.713 247.524 616.748 249.921C617.57 249.016 617.34 248.378 617.499 246.85C617.919 248.391 618.067 249.554 619.096 250.756C619.248 254.961 624.646 260.993 626.806 265.002C629.939 270.819 632.453 276.614 635.129 282.631L635.731 282.972C636.304 282.616 636.871 282.251 637.455 281.914C637.659 274.31 638.48 267.521 644.474 262.009C656.059 251.356 678.496 252.655 692.091 257.817C683.274 270.276 673 285.799 656.798 288.546C650.507 289.612 644.189 288.249 639.149 284.252C637.384 284.909 638.056 284.382 636.955 285.743C636.665 289.049 638.618 299.783 638.797 305.201C636.538 306 635.952 306.292 633.618 306.51C631.564 291.501 629.493 282.741 622.668 269.15C615.039 253.957 595.409 233.144 579.116 228.068C578.343 226.608 578.869 227.161 577.548 226.285C567.959 221.164 544.3 219.223 533.257 216.922C529.775 216.197 523.628 215.308 520.719 213.605C519.338 213.059 519.305 213.278 517.698 213.502C513.747 212.099 506.21 210.789 501.92 209.931C499.087 208.325 491.823 206.061 488.449 204.702C479.848 201.239 473.092 196.813 465.894 191.076C466.123 189.407 466.833 187.771 467.566 186.278Z"/><path fill="#86AA75" d="M637.455 281.914C637.659 274.31 638.48 267.521 644.474 262.009C656.059 251.356 678.496 252.655 692.091 257.817C683.274 270.276 673 285.799 656.798 288.546C650.507 289.612 644.189 288.249 639.149 284.252C648.698 277.206 658.869 272.292 669.525 267.154C673.574 265.201 679.177 263.236 682.903 261.021C665.19 265.03 652.333 272.124 637.455 281.914Z"/><path fill="#86AA75" d="M465.76 931.928C465.887 930.642 465.894 929.869 466.351 928.639C466.903 929.332 473.201 932.641 474.781 933.696C484.364 940.093 489.309 952.536 490.197 963.683C491.304 980.49 483.046 996.219 478.703 1011.68C463.619 999.75 448.267 986.352 445.616 966.041C444.032 953.903 449.681 933.544 462.655 929.561L462.923 929.56L464.307 929.009L465.224 929.424C465.466 930.396 465.62 930.937 465.76 931.928Z"/><path fill="#31793C" d="M462.923 929.56L464.307 929.009L465.224 929.424C465.466 930.396 465.62 930.937 465.76 931.928C461.617 954.895 468.956 980.204 474.951 1002.27C464.354 982.22 459.112 951.908 462.923 929.56Z"/><path fill="#86AA75" d="M612.801 733.948C618.959 723.424 625.31 713.655 633.299 703.971C646.174 688.364 670.049 681.439 684.519 699.225C686.18 701.267 687.533 703.967 689.558 705.609L688.261 705.561C689.675 708.126 688.988 707.697 692.001 708.47L688.512 708.514C688.719 715.401 685.168 722.75 680.407 727.539C668.281 739.736 651.256 737.45 635.728 735.609C628.404 734.741 620.248 734.021 612.801 733.948Z"/><path fill="#31793C" d="M628.247 725.375C644.321 715.993 669.685 704.987 688.261 705.561C689.675 708.126 688.988 707.697 692.001 708.47L688.512 708.514C670.689 708.374 645.426 718.595 629.057 726.096L628.247 725.375Z"/><path fill="#589156" d="M628.247 725.375L629.057 726.096C626.465 727.641 624.746 728.532 622.025 729.819L621.28 729.625L620.434 730.387L620.386 730.352C621.76 728.45 626.049 726.491 628.247 725.375Z"/><path fill="#86AA75" d="M429.367 830.01C433.932 850.076 451.173 869.02 441.593 892.044C437.682 901.444 431.37 906.745 422.154 910.525C422.153 911.735 422.138 912.662 422.235 913.877C421.768 914.778 421.106 916.178 420.563 916.976C420.085 914.899 419.745 912.382 419.399 910.247C405.121 907.678 398.879 890.166 399.26 877.373C399.783 859.798 417.419 841.536 429.367 830.01Z"/><path fill="#31793C" d="M426.75 838.185C426.862 843.437 423.826 861.404 423.129 867.713C421.402 883.35 421.665 894.965 422.154 910.525C422.153 911.735 422.138 912.662 422.235 913.877C421.768 914.778 421.106 916.178 420.563 916.976C420.085 914.899 419.745 912.382 419.399 910.247C419.583 905.542 418.6 897.376 418.629 891.984C418.731 872.541 421.735 856.834 426.75 838.185Z"/><path fill="#589156" d="M372.705 903.106L373.228 900.774L373.667 900.787C374.912 904.87 373.804 909.587 374.906 912.334C375.307 923.513 364.475 939.797 357.469 948.058C376.151 936.791 390.532 928.701 411.896 923.075C413.358 922.69 421.339 920.691 420.994 919.511C420.906 919.212 420.673 917.526 420.563 916.976C421.106 916.178 421.768 914.778 422.235 913.877L423.289 919.895C444.252 915.078 463.63 911.263 484.949 908.109C497.238 906.29 508.59 903.933 521.154 902.928L520.295 911.199C503.369 913.196 483.247 918.112 466.435 919.155C466.574 922.594 466.762 925.213 466.351 928.639C465.894 929.869 465.887 930.642 465.76 931.928C465.62 930.937 465.466 930.396 465.224 929.424L464.307 929.009L462.923 929.56L462.655 929.561C463.416 926.157 463.907 923.043 464.45 919.596C412.713 930.035 375.339 938.791 334.759 976.302C325.29 985.056 318.676 993.245 310.006 1002.26C309.294 999.974 308.271 992.548 307.853 989.849C315.156 983.496 321.764 976.118 328.922 969.586C335.608 963.485 347.145 956.321 352.847 949.635C364.941 935.453 373.436 921.93 372.705 903.106Z"/><defs><linearGradient id="gradient_2" gradientUnits="userSpaceOnUse" x1="522.4209" y1="257.49472" x2="484.0274" y2="230.42531"><stop offset="0" stop-color="#CD1820"/><stop offset="1" stop-color="#F3363D"/></linearGradient></defs><path fill="url(#gradient_2)" d="M501.431 210.494C506.168 212.416 508.728 215.973 513.837 218.028C515.294 216.427 516.389 215.217 517.698 213.502C519.305 213.278 519.338 213.059 520.719 213.605C519.516 215.327 518.554 216.747 517.159 218.347C524.264 218.538 528.544 219.697 535.446 221.334C532.397 222.154 529.082 223.119 526.035 223.84C528.206 225.586 533.354 230.325 533.88 233.174C534.005 233.854 533.494 234.145 532.924 234.846C532.603 235.917 532.255 239.374 532.12 240.717C531.365 247.203 528.463 252.389 523.843 256.812C500.075 279.559 481.967 267.462 483.181 236.758C483.434 230.369 486.29 224.584 491.161 220.473C496.171 216.776 498.59 216.705 504.639 216.591C503.285 214.291 502.529 212.967 501.431 210.494Z"/><path fill="#31793C" d="M501.431 210.494C506.168 212.416 508.728 215.973 513.837 218.028C515.294 216.427 516.389 215.217 517.698 213.502C519.305 213.278 519.338 213.059 520.719 213.605C519.516 215.327 518.554 216.747 517.159 218.347C524.264 218.538 528.544 219.697 535.446 221.334C532.397 222.154 529.082 223.119 526.035 223.84C528.206 225.586 533.354 230.325 533.88 233.174C534.005 233.854 533.494 234.145 532.924 234.846C528.925 233.251 521.753 232.224 516.153 230.157C516.033 233.788 516.944 237.87 512.499 238.768C507.312 237.113 507.572 230.974 507.651 226.696C500.894 225.332 496.853 224.514 491.161 220.473C496.171 216.776 498.59 216.705 504.639 216.591C503.285 214.291 502.529 212.967 501.431 210.494Z"/><path fill="#86AA75" d="M580.568 551.514C595.098 564.858 614.728 574.651 613.813 598.176C613.477 606.819 612.039 610.511 605.851 616.589L605.882 616.94C604.631 617.406 604.687 617.261 603.653 618.016L602.923 617.353C567.995 610.763 573.07 577.241 580.568 551.514Z"/><path fill="#31793C" d="M602.923 617.353C595.156 603.532 583.613 578.496 583.606 562.108C587.535 575.174 596.951 606.674 605.851 616.589L605.882 616.94C604.631 617.406 604.687 617.261 603.653 618.016L602.923 617.353Z"/><path fill="#3B619E" d="M425.633 195.581C417.565 186.293 421.504 169.325 431.887 163.369C439.852 158.8 444.609 158.742 453.159 160.482C455.65 161.855 456.025 162.057 458.814 162.535L459.234 163.108C464.051 167.58 467.535 174.214 467.813 180.822C467.902 182.645 467.819 184.471 467.566 186.278C466.833 187.771 466.123 189.407 465.894 191.076C459.56 208.448 435.517 209.978 425.633 195.581Z"/><path fill="#2A4074" d="M454.189 187.505C463.301 178.315 454.561 166.458 459.234 163.108C464.051 167.58 467.535 174.214 467.813 180.822C467.902 182.645 467.819 184.471 467.566 186.278C466.833 187.771 466.123 189.407 465.894 191.076C459.56 208.448 435.517 209.978 425.633 195.581C425.963 195.473 427.148 195.074 427.487 195.16C433.913 196.808 438.389 198.654 445.082 199.294C440.176 190.246 445.313 187.191 454.189 187.505Z"/><defs><linearGradient id="gradient_3" gradientUnits="userSpaceOnUse" x1="450.47635" y1="187.36009" x2="449.56757" y2="200.50467"><stop offset="0" stop-color="#5781BB"/><stop offset="1" stop-color="#639CD4"/></linearGradient></defs><path fill="url(#gradient_3)" d="M445.082 199.294C440.176 190.246 445.313 187.191 454.189 187.505C460.601 196.786 454.718 204.431 445.082 199.294Z"/><path fill="#2A4074" d="M449.78 188.472L450.413 188.642C458.518 190.916 457.284 195.828 451.221 200.003C449.467 199.856 449.543 199.86 447.912 199.18C445.9 195.885 451.317 193.766 451.187 189.765L449.78 188.472Z"/><path fill="#2A4074" d="M434.078 173.483C435.142 170.487 437.373 172.243 439.316 166.157L440.01 165.554C441.561 165.844 440.843 165.673 442.05 166.227C444.48 167.342 448.321 165.385 450.72 166.386C452.02 170.059 451.746 170.841 454.566 173.634C452.384 177.543 452.039 178.618 451.61 183.262C448.568 183.721 445.192 184.125 442.247 184.91C436.504 178.834 435.404 185.961 434.319 174.704L434.078 173.483Z"/><path d="M434.078 173.483C435.142 170.487 437.373 172.243 439.316 166.157L440.01 165.554C441.561 165.844 440.843 165.673 442.05 166.227C444.48 167.342 448.321 165.385 450.72 166.386C452.02 170.059 451.746 170.841 454.566 173.634C452.384 177.543 452.039 178.618 451.61 183.262C448.568 183.721 445.192 184.125 442.247 184.91C436.504 178.834 435.404 185.961 434.319 174.704C437.298 176.33 437.837 181.052 441.644 182.819C447.364 185.474 450.915 177.872 453.004 173.96C450.496 171.904 450.113 171.246 448.606 168.503C447.354 167.904 444.02 167.953 441.715 167.446L441.139 167.314C439.251 170.099 437.657 173.143 434.078 173.483Z"/><path fill="#86AA75" d="M481.237 689.557C480.815 668.49 483.757 640.464 509.503 635.138C513.592 634.291 516.527 634.803 520.541 635.47L521.196 635.158L522.409 636.919L522.5 637.191C531.344 648.443 524.66 667.942 513.508 675.233C503.698 681.648 492.195 685.533 481.237 689.557Z"/><path fill="#31793C" d="M514.816 641.159L515.599 643.115C514.409 645.208 510.876 648.982 509.146 650.962C503.497 657.425 498.594 664.227 493.798 671.341C492.42 673.384 490.394 677.261 488.831 678.847C494.213 664.56 504.051 651.812 514.816 641.159Z"/><path fill="#589156" d="M520.541 635.47L521.196 635.158L522.409 636.919L522.5 637.191C520.079 639.022 517.859 641.088 515.599 643.115L514.816 641.159C516.999 639.174 518.53 637.604 520.541 635.47Z"/><path fill="#86AA75" d="M559.717 298.261C581.335 295.684 607.015 291.163 614.816 318.301L612.987 320.657L611.603 322.341L611.241 323.081L610.255 323.825C608.702 327.372 607.234 330.955 605.852 334.572C602.705 334.365 598.032 334.128 595.092 333.271C578.889 328.546 571.431 310.72 559.717 298.261Z"/><path fill="#31793C" d="M610.255 323.825C603.438 319.823 596.404 314.352 589.129 310.446C583.376 307.359 577.596 305.036 571.963 302.059C585.748 305.982 600.923 312.577 611.603 322.341L611.241 323.081L610.255 323.825Z"/><path fill="#589156" d="M500.884 320.747C506.756 340.203 513.447 366.884 487.699 374.186C485.556 376.345 484.452 378.62 482.931 380.092L482.354 379.341L484.837 374.965C465.545 354.005 482.245 333.645 500.884 320.747Z"/><path fill="#31793C" d="M484.837 374.965C488.113 370.526 493.133 349.06 494.948 342.905C495.755 340.166 496.159 336.013 497.448 333.268C499.715 338.74 489.683 367.862 487.699 374.186C485.556 376.345 484.452 378.62 482.931 380.092L482.354 379.341L484.837 374.965Z"/><path fill="#86AA75" d="M637.781 195.7C641.596 208.993 646.383 223.125 639.537 236.316C635.385 244.316 627.955 246.993 619.478 247.183C619.411 248.493 619.415 249.47 619.096 250.756C618.067 249.554 617.919 248.391 617.499 246.85L617.287 246.373C601.422 228.063 620.915 209.604 634.664 198.251L637.781 195.7Z"/><path fill="#31793C" d="M632.85 205.312C628.365 215.579 619.717 236.051 619.478 247.183C619.411 248.493 619.415 249.47 619.096 250.756C618.067 249.554 617.919 248.391 617.499 246.85L617.287 246.373C618.5 244.006 618.614 238.472 619.318 235.475C622.092 223.672 625.979 215.084 632.85 205.312Z"/><path fill="#31793C" d="M682.873 873.117C684.232 862.706 684.935 853.302 691.166 844.508L699.282 849.861C692.988 858.07 690.316 862.051 689.659 872.596C708.838 865.959 711.112 875.261 729.202 870.921C723.004 877.514 720.742 878.938 712.841 883.43C707.956 884.524 705.334 884.729 700.26 884.711C695.157 884.105 691.536 882.965 685.965 882.914C680.948 882.867 675.346 883.523 670.545 883.344C668.725 883.276 662.091 881.672 659.587 881.26C653.133 877.449 651.825 875.48 648.288 868.964C664.523 870.151 667.242 865.329 682.873 873.117Z"/><path fill="#589156" d="M689.97 808.701C692.025 810.504 694.065 812.325 696.088 814.164C684.152 841.024 648.13 874.907 620.135 883.996C617.188 883.628 615.283 883.557 612.334 883.487C605.792 883.402 600.234 886.62 595.392 890.715C593.31 889.362 591.262 888.438 589.063 886.957C596.505 884.657 604.546 882.679 611.727 879.754C638.031 869.04 658.861 852.215 676.308 830.107L673.499 827.017L674.662 825.033L678.643 827.556C682.898 821.321 686.316 815.265 689.97 808.701Z"/><path fill="#3B619E" d="M433.304 132.87C411.443 126.836 425.616 90.6557 449.431 104.257C450.47 104.958 450.998 105.484 452.164 105.784C455.24 109.138 456.195 112.939 456.485 117.399C455.754 122.46 454.481 128.25 449.97 131.404C447.695 132.344 447.531 132.381 445.699 133.959C441.567 135.453 437.223 134.46 433.304 132.87Z"/><path fill="#2A4074" d="M433.304 132.87L434.333 131.879C452.692 129.019 450.162 118.741 456.485 117.399C455.754 122.46 454.481 128.25 449.97 131.404C447.695 132.344 447.531 132.381 445.699 133.959C441.567 135.453 437.223 134.46 433.304 132.87Z"/><path d="M432.684 108.39C435.808 111.143 436.95 110.082 440.773 109.146C442.399 112.471 442.888 113.265 445.16 116.184C443.277 118.886 441.599 123.958 440.52 124.687C436.062 124.1 424.522 126.241 428.91 116.257C428.77 116.576 427.875 112.749 427.842 112.422C430.492 111.156 431.193 110.938 432.684 108.39Z"/><path fill="#2A4074" d="M432.143 112.097L439.24 112.019C440.68 113.229 441.965 114.66 443.263 116.03C442.342 118.01 440.627 120.652 439.456 122.581C430.932 124.119 425.999 119.892 432.143 112.097Z"/><path fill="#E92F3B" d="M509.696 74.3876C511.465 73.8125 517.097 70.0185 519.088 68.8591L519.562 69.2749C518.872 70.4952 518.797 70.0559 518.98 71.0101L519.386 71.3488C521.144 72.8438 523.713 74.8794 522.614 77.3079C522.486 79.8837 523.242 82.6207 523.79 85.0258C525.607 92.9993 520.218 108.054 510.003 106.495C497.211 104.544 489.301 91.0316 494.947 79.1771L495.943 78.8468L493.861 78.2257C495.086 77.6902 495.051 77.6731 496.211 76.9519L496.106 76.2344L494.755 75.3193C499.936 72.733 502.98 71.246 508.687 73.38L509.696 74.3876Z"/><path fill="#31793C" d="M509.696 74.3876C511.465 73.8125 517.097 70.0185 519.088 68.8591L519.562 69.2749C518.872 70.4952 518.797 70.0559 518.98 71.0101L519.386 71.3488C521.144 72.8438 523.713 74.8794 522.614 77.3079C519.056 77.7664 515.609 79.2234 512.223 80.4748L509.181 81.117C504.571 79.165 500.465 81.5164 495.943 78.8468L493.861 78.2257C495.086 77.6902 495.051 77.6731 496.211 76.9519L496.106 76.2344L494.755 75.3193C499.936 72.733 502.98 71.246 508.687 73.38L509.696 74.3876Z"/><path fill="#D8232A" d="M509.181 81.117L512.223 80.4748C513.392 82.5489 513.735 83.273 514.519 85.5171C515.236 85.8304 515.657 85.9966 516.417 86.2782C516.087 88.6037 513.74 89.6439 511.526 89.187C508.7 86.3099 511.218 84.7959 509.181 81.117Z"/><path fill="#FB9E37" d="M542.418 49.5866C553.291 47.7127 563.266 55.8268 560.298 67.1252C559.198 71.0088 556.986 74.3266 553.344 76.2392C549.928 78.0456 545.919 78.3653 542.259 77.1233C538.059 75.6851 535.376 72.8148 533.507 68.896C532.479 66.0846 532.046 63.9312 531.406 61.0381C533.006 59.7429 534.104 57.4554 535.126 55.6396C537.178 53.0167 539.671 51.4923 542.418 49.5866Z"/><path fill="#F6792C" d="M533.507 68.896C533.945 68.6096 535.016 68.0365 535.461 68.2664C539.179 70.1883 544.204 71.893 548.437 71.8254C551.551 71.7756 555.928 67.1066 558.979 66.1706L560.298 67.1252C559.198 71.0088 556.986 74.3266 553.344 76.2392C549.928 78.0456 545.919 78.3653 542.259 77.1233C538.059 75.6851 535.376 72.8148 533.507 68.896Z"/><path fill="#86AA75" d="M485.753 194.331C480.142 173.814 504.22 171.309 518.486 171.5C514.551 185.163 510.481 194.214 495.749 198.687C492.229 197.859 490.299 197.479 486.989 196.015L485.178 196.501L484.802 195.014L485.753 194.331Z"/><path fill="#31793C" d="M485.753 194.331C494.185 188.829 504.512 181.131 512.727 176.296C503.581 185.73 495.967 188.684 486.989 196.015L485.178 196.501L484.802 195.014L485.753 194.331Z"/><path fill="#3B619E" d="M310.253 1012.01C326.353 1004.88 331.858 1009.85 346.359 1014.72C347.557 1015.91 350.226 1021.82 351.524 1024L309.472 1024C309.453 1019.96 309.494 1016 310.253 1012.01Z"/><path fill="#31793C" d="M340.341 1001.01L346.053 998.043C349.738 1004.78 350.065 1006.55 351.779 1013.96C360.54 1005.33 367.377 1005.23 379.019 1004.3C372.906 1010.18 370.271 1012.69 362.451 1015.94C369.469 1017.2 377.639 1018.63 382.76 1024L351.524 1024C350.226 1021.82 347.557 1015.91 346.359 1014.72C344.421 1010.11 342.541 1005.5 340.341 1001.01Z"/><path fill="#86AA75" d="M568.827 216.589C555.654 205.034 561.816 194.634 567.738 181.321C576.43 192.422 582.232 203.694 571.21 215.666C570.572 216.557 570.314 216.973 569.57 217.772C569.151 216.195 569.35 213.966 569.404 212.261C569.181 213.645 568.871 215.204 568.827 216.589Z"/><path fill="#31793C" d="M569.404 212.261C569.465 207.099 569.33 195.646 570.104 191.191L570.19 191.287L570.016 192.205L570.491 192.9C571.063 199.193 570.699 211.977 571.21 215.666C570.572 216.557 570.314 216.973 569.57 217.772C569.151 216.195 569.35 213.966 569.404 212.261Z"/><path fill="#589156" d="M604.334 348.685C604.718 351.56 605.023 353.31 605.671 356.164C596.536 364.128 590.39 368.211 578.57 372.089C575.482 373.102 569.027 374.923 566.395 376.212C567.64 377.979 568.226 377.935 569.553 379.291C566.586 378.933 557.88 374.822 556.988 372.007L557.588 371.123C570.927 368.008 582.143 364.94 593.691 356.98C597.692 354.222 600.562 351.405 604.334 348.685Z"/><path fill="#86AA75" d="M429.277 74.7898C441.168 75.2004 454.256 75.336 455.17 90.6636L455.216 90.9937C454.965 92.6401 455.302 91.931 454.109 93.1657L454.017 94.0377C436.91 95.6652 434.456 89.7931 429.277 74.7898Z"/><path fill="#589156" d="M431.649 76.1695C439.821 79.2598 446.943 86.1911 454.28 91.0583C454.592 91.0368 454.904 91.0152 455.216 90.9937C454.965 92.6401 455.302 91.931 454.109 93.1657C449.023 87.319 438.23 81.7098 431.649 76.1695Z"/><path fill="#589156" d="M478.604 73.7125C477.048 70.8506 473.749 63.171 474.073 59.9843L474.622 59.7742C485.502 61.8213 488.3 64.0178 489.112 75.6989L489.571 76.2324C491.118 76.135 493.179 75.6429 494.755 75.3193L496.106 76.2344L496.211 76.9519C495.051 77.6731 495.086 77.6902 493.861 78.2257L495.943 78.8468L494.947 79.1771C475.728 77.7293 458.989 87.6513 452.164 105.784C450.998 105.484 450.47 104.958 449.431 104.257C450.853 100.756 452.146 97.3292 454.017 94.0377L454.109 93.1657C455.302 91.931 454.965 92.6401 455.216 90.9937L455.17 90.6636C455.968 90.3896 455.955 90.4862 456.5 90.0455C464.936 83.2263 474.13 77.5013 485.349 76.9339L478.604 73.7125Z"/><path fill="#86AA75" d="M474.622 59.7742C485.502 61.8213 488.3 64.0178 489.112 75.6989C486.974 74.3297 476.134 62.1646 474.622 59.7742Z"/><path fill="#86AA75" d="M586.967 636.64L593.463 635.133C594.483 635.72 595.152 636.031 596.057 636.791L589.211 638.036C571.675 643.42 559.433 651.641 557.245 670.946C559.272 683.72 573.715 691.923 583.26 680.509C586.171 677.03 585.673 669.399 581.456 667.378C577.822 665.085 573.845 668.19 571.455 667.222C572.05 662.54 583.493 662.745 585.899 668.019C596.368 690.962 559.587 696.083 555.56 674.517C551.185 660.543 564.041 645.357 576.164 640.195C580 638.562 582.911 637.661 586.967 636.64Z"/><path fill="#86AA75" d="M539.696 0L544.939 0C547.228 5.63792 548.079 8.99758 549.167 15.0082C547.245 21.5708 545.698 22.7669 539.013 24.3718L539.117 25.1747C540.419 34.7338 542.16 35.6898 540.697 47.1011C540.705 45.2266 540.489 44.5149 540.1 42.7212C539.953 34.5797 539.708 32.0749 536.658 24.4921C534.262 19.6469 532.032 15.7389 527.389 12.5866C525.699 12.5733 525.935 12.8881 524.215 14.2823C524.335 13.1694 525.184 11.4748 526.259 11.0572C528.473 11.8984 531.216 14.7366 532.78 16.5121C534.353 9.62438 535.985 5.87783 539.696 0Z"/><path fill="#589156" d="M536.658 24.4921C538.267 22.3586 538.472 16.0386 539.134 12.8371C539.944 15.0954 539.096 21.7338 539.013 24.3718L539.117 25.1747C540.419 34.7338 542.16 35.6898 540.697 47.1011C540.705 45.2266 540.489 44.5149 540.1 42.7212C539.953 34.5797 539.708 32.0749 536.658 24.4921Z"/><path fill="#86AA75" d="M344.139 891.989C346.646 894.315 350.113 897.462 350.067 901.067C349.99 907.146 344.686 911.447 339.025 911.244C335.256 911.11 331.712 909.414 329.241 906.564C326.467 903.373 325.271 898.864 325.732 894.707C327.121 882.188 340.22 875.555 351.741 877.142C358.757 878.173 365.063 881.984 369.238 887.715C374.678 895.124 376.117 903.353 374.906 912.334C373.804 909.587 374.912 904.87 373.667 900.787L373.228 900.774L372.705 903.106C369.151 882.341 345.711 869.944 330.679 888.309C321.231 899.85 336.532 916.122 346.002 905.412C348.631 902.379 345.683 895.588 344.139 891.989Z"/><path fill="#86AA75" d="M639.753 628.497C639.666 628.117 639.582 627.735 639.502 627.353C636.236 611.599 643.572 590.651 661.065 587.553C665.676 586.703 670.431 587.855 674.141 590.723C680.793 595.761 682.824 604.531 677.4 611.238C675.243 613.864 672.083 615.463 668.69 615.647C660.725 616.002 655.89 606.821 660.405 602.43C661.705 603.984 662.128 615.467 666.734 614.861C683.706 612.631 681.12 588.453 663.658 590.124C645.824 591.83 640.076 609.198 641.044 623.921C640.914 626.183 641.102 626.857 639.753 628.497Z"/><path fill="#86AA75" d="M525.396 55.7387C523.833 55.3113 518.549 54.0456 518.841 51.8753C519.516 46.8673 525.042 41.4064 530.354 42.1606C534.874 42.8023 536.282 45.2404 538.858 48.4119C539.353 46.6243 539.721 44.5587 540.1 42.7212C540.489 44.5149 540.705 45.2266 540.697 47.1011L540.109 48.0202C540.937 49.4183 540.456 48.7807 542.418 49.5866C539.671 51.4923 537.178 53.0167 535.126 55.6396L533.03 55.8504C533.819 54.7374 534.478 54.0369 534.732 52.7023C533.546 52.5488 528.774 54.8902 526.153 55.5513L525.396 55.7387Z"/><path fill="#589156" d="M529.431 45.6319C531.074 45.7555 531.928 45.7225 533.486 46.3269C528.575 47.2605 528.056 46.8136 525.075 50.7006C524.136 51.737 524.226 51.6929 522.915 52.1657L522.476 51.5637C523.681 48.1737 525.971 46.4294 529.431 45.6319Z"/><path fill="#86AA75" d="M433.007 393.089C439.881 383.568 444.543 373.97 442.632 361.757C441.724 355.954 437.926 349.481 432.993 346.18C430.108 344.242 426.564 343.547 423.16 344.253C414.27 346.133 410.94 356.612 419.849 361.007C426.023 364.052 426.636 355.516 428.94 354.183C432.588 360.681 418.945 369.049 413.597 357.272C412.483 354.864 412.407 352.105 413.386 349.639C421.816 328.785 465.326 353.294 434.304 394.351L433.007 393.089Z"/><path fill="#86AA75" d="M506.241 47.6171C513.185 51.4442 517.908 55.1659 519.274 63.3415L519.553 65.2318C523.569 65.6149 530.532 58.874 533.03 55.8504L535.126 55.6396C534.104 57.4554 533.006 59.7429 531.406 61.0381C528.832 62.2967 526.158 63.7997 523.809 65.4368C519.381 68.5223 517.971 67.3119 513.604 65.9513C509.296 62.0769 507.422 53.0082 506.241 47.6171Z"/><path fill="#589156" d="M519.274 63.3415L519.553 65.2318C523.569 65.6149 530.532 58.874 533.03 55.8504L535.126 55.6396C534.104 57.4554 533.006 59.7429 531.406 61.0381C528.832 62.2967 526.158 63.7997 523.809 65.4368C519.381 68.5223 517.971 67.3119 513.604 65.9513C513.004 62.7845 511.662 58.0214 510.885 54.7486C513.457 58.0197 516.047 60.7349 519.274 63.3415Z"/><path fill="#589156" d="M445.699 133.959C447.531 132.381 447.695 132.344 449.97 131.404C450.956 140.982 453.643 154.34 458.814 162.535C456.025 162.057 455.65 161.855 453.159 160.482C449.021 152.139 447.232 143.716 446.49 134.502L445.699 133.959Z"/><path fill="#86AA75" fill-opacity="0.98039216" d="M577.548 226.285C578.869 227.161 578.343 226.608 579.116 228.068C566.313 227.966 560.078 231.23 556.273 243.865C556.682 245.582 557.056 247.286 557.922 248.836C559.413 251.554 561.978 253.519 564.99 254.251C575.38 256.672 579.031 243.979 569.529 242.627C566.796 242.238 566.703 246.745 565.423 248.199C560.729 237.924 583.168 240.476 575.028 251.801C573.302 254.194 570.641 255.74 567.707 256.055C564.976 256.356 562.277 255.641 560.228 253.875C549.164 244.338 557.07 230.694 569.102 227.271C572.283 226.365 574.371 226.374 577.548 226.285Z"/><path fill="#266038" d="M533.116 362.022L538.125 359.067C540.297 364.019 541.954 368.609 543.798 373.681C543.423 375.184 543.321 375.955 542.519 377.309L541.639 377.32C540.585 376.216 540.052 375.749 539.177 374.483C537.735 370.346 535.216 365.854 533.116 362.022Z"/><path fill="#646364" fill-opacity="0.015686275" d="M501.92 209.931C506.21 210.789 513.747 212.099 517.698 213.502C516.389 215.217 515.294 216.427 513.837 218.028C508.728 215.973 506.168 212.416 501.431 210.494L501.92 209.931Z"/><path fill="#86AA75" d="M528.955 629.002L530.437 630.066C528.526 631.654 524.017 635.226 522.409 636.919L521.196 635.158C522.238 633.909 527.217 630.385 528.955 629.002Z"/><path fill="#266038" d="M508.687 73.38C508.293 71.5191 507.844 70.4115 508.455 68.6277L509.363 67.7895L510.361 67.9143C511.306 69.3343 511.228 69.2395 511.33 70.9579C510.768 72.0928 510.224 73.2362 509.696 74.3876L508.687 73.38Z"/></svg>